<!--?xml version="1.0" standalone="no"?-->
              <svg id="sw-js-blob-svg" viewBox="0 0 100 100" xmlns="http://www.w3.org/2000/svg" version="1.1">
                    <defs> 
                        <linearGradient id="sw-gradient" x1="0" x2="1" y1="1" y2="0">
                            <stop id="stop1" stop-color="rgba(255, 175, 204, 1)" offset="0%"></stop>
                            <stop id="stop2" stop-color="rgba(255, 200, 221, 1)" offset="100%"></stop>
                        </linearGradient>
                    </defs>
                <path fill="url(#sw-gradient)" d="M27.9,-31.8C35.7,-26.7,41.3,-17.5,43.4,-7.4C45.5,2.7,44.1,13.7,38.3,20.6C32.5,27.5,22.3,30.4,12.5,33.6C2.7,36.9,-6.7,40.6,-15.9,39.2C-25.1,37.8,-34,31.3,-37.9,22.7C-41.8,14.2,-40.6,3.6,-38.8,-6.8C-36.9,-17.3,-34.4,-27.6,-27.8,-33C-21.2,-38.4,-10.6,-38.8,-0.3,-38.5C10,-38.1,20.1,-37,27.9,-31.8Z" width="100%" height="100%" transform="translate(50 50)" stroke-width="0" style="transition: all 0.3s ease 0s;"></path>
              </svg>